HIERARCHY
ROOT Hips
{
    OFFSET   0.000000   0.000000   0.000000
    CHANNELS 6 Xposition Yposition Zposition Zrotation Xrotation Yrotation
    JOINT Chest
    {
        OFFSET   0.000000   8.007230   0.000000
        CHANNELS 3 Zrotation Xrotation Yrotation
        JOINT Chest2
        {
            OFFSET   0.000000  22.077100   0.000000
            CHANNELS 3 Zrotation Xrotation Yrotation
            JOINT Neck
            {
                OFFSET   0.000000  23.255100   0.000000
                CHANNELS 3 Zrotation Xrotation Yrotation
                JOINT Head
                {
                    OFFSET   0.000000  14.370100   1.956600
                    CHANNELS 3 Zrotation Xrotation Yrotation
                    End Site
                    {
                        OFFSET   0.000000  19.566000   0.000000
                    }
                }
            }
            JOINT LeftCollar
            {
                OFFSET   3.911900  19.017000  -0.467063
                CHANNELS 3 Zrotation Xrotation Yrotation
                JOINT LeftShoulder
                {
                    OFFSET  10.383700   0.000000   0.000000
                    CHANNELS 3 Zrotation Xrotation Yrotation
                    JOINT LeftElbow
                    {
                        OFFSET  26.662100   0.001193   0.000980
                        CHANNELS 3 Zrotation Xrotation Yrotation
                        JOINT LeftWrist
                        {
                            OFFSET  28.869000  -0.000059  -0.000082
                            CHANNELS 3 Zrotation Xrotation Yrotation
                            JOINT LeftFinger0
                            {
                                OFFSET   2.044650  -2.323450   3.252850
                                CHANNELS 3 Zrotation Xrotation Yrotation
                                JOINT LeftFinger01
                                {
                                    OFFSET   3.088130   0.000000   0.000000
                                    CHANNELS 3 Zrotation Xrotation Yrotation
                                    JOINT LeftFinger02
                                    {
                                        OFFSET   2.639460   0.000000   0.000000
                                        CHANNELS 3 Zrotation Xrotation Yrotation
                                        End Site
                                        {
                                            OFFSET   2.582190   0.000000   0.000000
                                        }
                                    }
                                }
                            }
                            JOINT LeftFinger1
                            {
                                OFFSET   8.364480   0.000000   3.252850
                                CHANNELS 3 Zrotation Xrotation Yrotation
                                JOINT LeftFinger11
                                {
                                    OFFSET   4.646930   0.000000   0.000000
                                    CHANNELS 3 Zrotation Xrotation Yrotation
                                    JOINT LeftFinger12
                                    {
                                        OFFSET   2.323470   0.000000   0.000000
                                        CHANNELS 3 Zrotation Xrotation Yrotation
                                        End Site
                                        {
                                            OFFSET   2.273050   0.000000   0.000000
                                        }
                                    }
                                }
                            }
                            JOINT LeftFinger2
                            {
                                OFFSET   8.364490   0.000016   1.078090
                                CHANNELS 3 Zrotation Xrotation Yrotation
                                JOINT LeftFinger21
                                {
                                    OFFSET   5.111610   0.000000   0.000000
                                    CHANNELS 3 Zrotation Xrotation Yrotation
                                    JOINT LeftFinger22
                                    {
                                        OFFSET   2.788150   0.000016   0.000000
                                        CHANNELS 3 Zrotation Xrotation Yrotation
                                        End Site
                                        {
                                            OFFSET   2.727660   0.000000   0.000000
                                        }
                                    }
                                }
                            }
                            JOINT LeftFinger3
                            {
                                OFFSET   7.899780   0.000015  -1.078090
                                CHANNELS 3 Zrotation Xrotation Yrotation
                                JOINT LeftFinger31
                                {
                                    OFFSET   4.646930   0.000000   0.000000
                                    CHANNELS 3 Zrotation Xrotation Yrotation
                                    JOINT LeftFinger32
                                    {
                                        OFFSET   2.323470   0.000000   0.000000
                                        CHANNELS 3 Zrotation Xrotation Yrotation
                                        End Site
                                        {
                                            OFFSET   2.273050   0.000000   0.000000
                                        }
                                    }
                                }
                            }
                            JOINT LeftFinger4
                            {
                                OFFSET   7.435090   0.000000  -3.252850
                                CHANNELS 3 Zrotation Xrotation Yrotation
                                JOINT LeftFinger41
                                {
                                    OFFSET   3.717550   0.000000   0.000000
                                    CHANNELS 3 Zrotation Xrotation Yrotation
                                    JOINT LeftFinger42
                                    {
                                        OFFSET   1.858770   0.000000   0.000000
                                        CHANNELS 3 Zrotation Xrotation Yrotation
                                        End Site
                                        {
                                            OFFSET   1.818440   0.000000   0.000000
                                        }
                                    }
                                }
                            }
                        }
                    }
                }
            }
            JOINT RightCollar
            {
                OFFSET  -3.911910  19.017000  -0.467062
                CHANNELS 3 Zrotation Xrotation Yrotation
                JOINT RightShoulder
                {
                    OFFSET -10.383700   0.000014   0.000000
                    CHANNELS 3 Zrotation Xrotation Yrotation
                    JOINT RightElbow
                    {
                        OFFSET -26.662100   0.001225   0.001091
                        CHANNELS 3 Zrotation Xrotation Yrotation
                        JOINT RightWrist
                        {
                            OFFSET -28.869000  -0.000020  -0.000085
                            CHANNELS 3 Zrotation Xrotation Yrotation
                            JOINT RightFinger0
                            {
                                OFFSET  -2.044650  -2.323490   3.252850
                                CHANNELS 3 Zrotation Xrotation Yrotation
                                JOINT RightFinger01
                                {
                                    OFFSET  -3.088130   0.000000   0.000000
                                    CHANNELS 3 Zrotation Xrotation Yrotation
                                    JOINT RightFinger02
                                    {
                                        OFFSET  -2.639460   0.000000   0.000000
                                        CHANNELS 3 Zrotation Xrotation Yrotation
                                        End Site
                                        {
                                            OFFSET  -2.582190   0.000000   0.000000
                                        }
                                    }
                                }
                            }
                            JOINT RightFinger1
                            {
                                OFFSET  -8.364480   0.000000   3.252850
                                CHANNELS 3 Zrotation Xrotation Yrotation
                                JOINT RightFinger11
                                {
                                    OFFSET  -4.646930   0.000000   0.000000
                                    CHANNELS 3 Zrotation Xrotation Yrotation
                                    JOINT RightFinger12
                                    {
                                        OFFSET  -2.323470   0.000000   0.000000
                                        CHANNELS 3 Zrotation Xrotation Yrotation
                                        End Site
                                        {
                                            OFFSET  -2.273050   0.000000   0.000000
                                        }
                                    }
                                }
                            }
                            JOINT RightFinger2
                            {
                                OFFSET  -8.364480   0.000000   1.078090
                                CHANNELS 3 Zrotation Xrotation Yrotation
                                JOINT RightFinger21
                                {
                                    OFFSET  -5.111620   0.000000   0.000000
                                    CHANNELS 3 Zrotation Xrotation Yrotation
                                    JOINT RightFinger22
                                    {
                                        OFFSET  -2.788160   0.000000   0.000000
                                        CHANNELS 3 Zrotation Xrotation Yrotation
                                        End Site
                                        {
                                            OFFSET  -2.727660   0.000000   0.000000
                                        }
                                    }
                                }
                            }
                            JOINT RightFinger3
                            {
                                OFFSET  -7.899780   0.000000  -1.078090
                                CHANNELS 3 Zrotation Xrotation Yrotation
                                JOINT RightFinger31
                                {
                                    OFFSET  -4.646930   0.000000   0.000000
                                    CHANNELS 3 Zrotation Xrotation Yrotation
                                    JOINT RightFinger32
                                    {
                                        OFFSET  -2.323470   0.000000   0.000000
                                        CHANNELS 3 Zrotation Xrotation Yrotation
                                        End Site
                                        {
                                            OFFSET  -2.273050   0.000000   0.000000
                                        }
                                    }
                                }
                            }
                            JOINT RightFinger4
                            {
                                OFFSET  -7.435090   0.000000  -3.252850
                                CHANNELS 3 Zrotation Xrotation Yrotation
                                JOINT RightFinger41
                                {
                                    OFFSET  -3.717550   0.000000   0.000000
                                    CHANNELS 3 Zrotation Xrotation Yrotation
                                    JOINT RightFinger42
                                    {
                                        OFFSET  -1.858760   0.000000   0.000000
                                        CHANNELS 3 Zrotation Xrotation Yrotation
                                        End Site
                                        {
                                            OFFSET  -1.818440   0.000000   0.000000
                                        }
                                    }
                                }
                            }
                        }
                    }
                }
            }
        }
    }
    JOINT LeftHip
    {
        OFFSET   9.783030   0.000000   0.000000
        CHANNELS 3 Zrotation Xrotation Yrotation
        JOINT LeftKnee
        {
            OFFSET   0.000063 -41.789100   0.000608
            CHANNELS 3 Zrotation Xrotation Yrotation
            JOINT LeftAnkle
            {
                OFFSET   0.000048 -41.133200  -0.000184
                CHANNELS 3 Zrotation Xrotation Yrotation
                JOINT LeftToe
                {
                    OFFSET   0.000000  -6.358960  14.674500
                    CHANNELS 3 Zrotation Xrotation Yrotation
                    End Site
                    {
                        OFFSET   0.000000   0.000000   3.913200
                    }
                }
            }
        }
    }
    JOINT RightHip
    {
        OFFSET  -9.783030   0.000000   0.000000
        CHANNELS 3 Zrotation Xrotation Yrotation
        JOINT RightKnee
        {
            OFFSET   0.000071 -41.789100   0.001239
            CHANNELS 3 Zrotation Xrotation Yrotation
            JOINT RightAnkle
            {
                OFFSET   0.000037 -41.133200  -0.000166
                CHANNELS 3 Zrotation Xrotation Yrotation
                JOINT RightToe
                {
                    OFFSET   0.000000  -6.358960  14.674500
                    CHANNELS 3 Zrotation Xrotation Yrotation
                    End Site
                    {
                        OFFSET   0.000000   0.000000   3.913200
                    }
                }
            }
        }
    }
}
MOTION
Frames: 6
Frame Time:   0.016667
  2.381280  89.521200   2.757320  -4.053460 -15.771100  -0.470219   0.055178   9.419430   2.390000  -0.303505  18.832900   4.871640   2.146540  -2.627160   0.097172   3.546640  -5.302450  -4.467590  -4.905990  -3.312760  -0.322886 -67.531700  22.179200  -8.892650  -0.530028  -3.355490 -19.218400  19.084300 -15.118600   8.572880  41.663800  38.260800 -67.408100 -33.185900   0.013256   0.008680 -11.593000   0.003896  -0.046583 -32.710600   6.404250  -9.853270 -27.214900   0.005225   0.000477 -19.050400   0.004670  -0.131588 -28.650600  -1.446710   2.645910 -38.736000   0.002472   0.001986 -25.798200   0.004512   0.003276 -28.757700  -1.451650   2.643210 -41.895700   0.003955   0.003565 -27.902500   0.003442   0.004775 -34.038500  -1.688980   2.497440 -51.112000  -0.004407   0.001810 -34.040600   0.003089   0.006675   9.523060  -4.274900   7.121560  41.099300  12.903600   3.219970 -27.584400 -36.658900  93.247900 -16.630400   0.210543  17.597500 -15.292600  36.189200  53.755400  82.021600  -0.004748   0.000817  47.966400  -0.000244   0.005722  88.996800   4.999640   0.080295  87.960100   0.001210  -0.007093  65.970200   0.001540  -0.001044  89.000000  -0.000054  -0.000770  94.260600   0.001181   0.000041  70.695500  -0.001181  -0.000947  88.996000  -4.999800  -0.089308 100.243000   0.004396  -0.010832  75.181700  -0.001538  -0.009501  88.984600 -10.003700  -0.176320 110.000000  -0.001069  -0.000303  80.000000   0.002140   0.003726   2.942780  18.356000   2.971090   0.484467   0.059646   3.103850  -2.990500  -3.549700   0.230540   0.000000   0.000000   0.000000   3.701850  16.932300  -5.683410  -2.505130   4.604450  -9.907860   2.544850  -5.564920   3.707920   0.000000   0.000000   0.000000
  2.291160  89.523000   2.708400  -4.106160 -15.424300  -0.899191   0.113173   9.206020   2.198810  -0.139842  18.409500   4.467320   2.135960  -2.579190   0.096128   3.528660  -5.208110  -4.014050  -4.913070  -3.132220  -0.409479 -67.508600  22.122500  -8.893340  -0.474348  -3.380350 -19.358200  19.185700 -15.227200   8.649480  41.603100  38.231600 -67.377700 -33.232900   0.015743   0.010352 -11.616500   0.004075  -0.025822 -32.774800   6.375050  -9.785430 -27.262400   0.005222   0.000538 -19.083700   0.004671  -0.056468 -28.650100  -1.490330   2.725460 -38.768600   0.002490   0.002025 -25.819900   0.004459   0.003277 -28.757600  -1.495430   2.722660 -42.055000   0.003956   0.003649 -28.008600   0.003442   0.004775 -34.147900  -1.744710   2.569620 -51.279900  -0.004594   0.001957 -34.152400   0.003088   0.006675   9.585740  -4.039600   7.002360  42.082800  13.120300   2.501740 -27.532000 -36.521500  93.231900 -16.708900  -0.021973  17.767000 -15.239400  35.831200  53.513900  81.990100  -0.004672   0.000775  47.945400  -0.000236   0.005716  88.996800   4.999650   0.080151  87.937700   0.001251  -0.007360  65.953300   0.001539  -0.001072  89.000000  -0.000100  -0.000900  94.182900   0.001239   0.000081  70.637200  -0.001437  -0.001036  88.996000  -4.999730  -0.089615 100.179000   0.004270  -0.011078  75.134200  -0.001813  -0.009627  88.984600 -10.003800  -0.176327 110.000000  -0.001231  -0.000306  80.000000   0.002196   0.003808   2.914980  18.012000   2.999460   0.515088   0.117934   3.323410  -2.954560  -3.583430   0.418700  -0.000000   0.000000  -0.000000   3.657330  16.630500  -5.646110  -2.454820   4.414570  -9.583920   2.485930  -5.442570   3.798500   0.000000   0.000000  -0.000000
  2.201880  89.525100   2.653880  -4.136850 -15.037200  -1.302750   0.163077   8.973030   2.020890   0.003771  17.946300   4.092380   2.123770  -2.516990   0.092029   3.507920  -5.082880  -3.610130  -4.939350  -2.943290  -0.432258 -67.520600  22.042600  -8.868810  -0.394582  -3.312280 -19.499000  19.250100 -15.320100   8.713320  41.555800  38.200200 -67.343700 -33.265300   0.018449   0.012174 -11.632700   0.004247  -0.030455 -32.820600   6.349760  -9.730670 -27.295600   0.005224   0.000595 -19.106900   0.004668  -0.015832 -28.649200  -1.528260   2.794770 -38.782300   0.002514   0.002060 -25.829000   0.004407   0.003276 -28.757200  -1.533530   2.791870 -42.182200   0.003955   0.003733 -28.093400   0.003441   0.004775 -34.236500  -1.793200   2.632280 -51.416000  -0.004690   0.002178 -34.243100   0.003091   0.006675   9.660530  -3.809970   6.889740  43.025800  13.334100   1.777770 -27.476800 -36.331700  93.181900 -16.736400  -0.403329  17.791800 -15.292200  36.079400  53.544200  81.974600  -0.004594   0.000730  47.935100  -0.000221   0.005700  88.996800   4.999650   0.080011  87.925900   0.001311  -0.007628  65.944400   0.001539  -0.001113  89.000000  -0.000144  -0.001015  94.154000   0.001289   0.000120  70.615500  -0.001715  -0.001132  88.996000  -4.999660  -0.089904 100.238000   0.004152  -0.011325  75.178700  -0.002095  -0.009743  88.984600 -10.004000  -0.176325 110.000000  -0.001399  -0.000312  80.000000   0.002265   0.003883   2.838820  17.689000   3.084470   0.577944   0.040030   3.509340  -2.924150  -3.548570   0.581143  -0.000000   0.000000   0.000000   3.604360  16.297300  -5.570080  -2.404090   4.210780  -9.289940   2.416900  -5.316560   3.857810  -0.000000   0.000000   0.000000
  2.111110  89.527000   2.600030  -4.160060 -14.645500  -1.692910   0.214776   8.735390   1.838690   0.144494  17.473300   3.709770   2.104260  -2.441140   0.087296   3.475170  -4.930170  -3.188330  -4.986400  -2.749570  -0.435450 -67.561700  21.919200  -8.804350  -0.313153  -3.171270 -19.641400  19.283200 -15.397000   8.762230  41.516800  38.166700 -67.305900 -33.289900   0.020003   0.013228 -11.644900   0.004410  -0.035087 -32.854700   6.325850  -9.682500 -27.319600   0.005226   0.000650 -19.123700   0.004665   0.001654 -28.647800  -1.562440   2.857290 -38.787200   0.002538   0.002092 -25.832300   0.004356   0.003276 -28.756700  -1.567880   2.854300 -42.287900   0.003954   0.003819 -28.163800   0.003439   0.004775 -34.311900  -1.836920   2.688710 -51.532000  -0.004983   0.002437 -34.320300   0.003094   0.006676   9.737940  -3.558730   6.826090  43.944100  13.572500   1.062890 -27.466400 -36.099200  93.080500 -16.863500  -0.655670  17.817000 -15.383900  36.523900  53.638100  81.969900  -0.004513   0.000688  47.931900  -0.000206   0.005680  88.996900   4.999660   0.079874  87.917200   0.001378  -0.007899  65.937900   0.001544  -0.001160  89.000000  -0.000185  -0.001127  94.149700   0.001338   0.000156  70.612300  -0.002005  -0.001234  88.996000  -4.999600  -0.090191 100.344000   0.004043  -0.011567  75.258300  -0.002381  -0.009860  88.984600 -10.004100  -0.176323 110.000000  -0.001567  -0.000317  80.000000   0.002336   0.003956   2.760430  17.361500   3.183770   0.648400  -0.037844   3.698690  -2.899650  -3.513710   0.714973  -0.000000   0.000000  -0.000000   3.547230  15.963700  -5.473630  -2.348300   4.002790  -9.024980   2.343890  -5.187110   3.914060   0.000000   0.000000   0.000000
  2.016950  89.528500   2.555030  -4.194950 -14.282800  -2.086440   0.280963   8.503070   1.628310   0.317444  17.010800   3.268950   2.065720  -2.348310   0.085064   3.410830  -4.743230  -2.657020  -5.055760  -2.549260  -0.331781 -67.667700  21.708100  -8.693070  -0.243740  -2.979060 -19.798700  19.300800 -15.457500   8.792190  41.481100  38.132900 -67.266700 -33.308400   0.019148   0.012600 -11.654200   0.004567  -0.032457 -32.883100   6.302920  -9.638580 -27.337900   0.005225   0.000704 -19.136500   0.004666  -0.011909 -28.645900  -1.592730   2.912660 -38.790400   0.002561   0.002120 -25.834400   0.004306   0.003276 -28.756300  -1.598300   2.909600 -42.381500   0.003956   0.003906 -28.226100   0.003440   0.004774 -34.380300  -1.875860   2.738550 -51.637100  -0.006745   0.002734 -34.390300   0.003093   0.006676   9.800700  -3.237280   6.838420  44.813000  13.842100   0.376604 -27.492600 -35.837200  92.930800 -17.230100  -0.574382  18.030400 -15.487700  37.059000  53.859900  81.976700  -0.004434   0.000652  47.936400  -0.000196   0.005655  88.996900   4.999660   0.079739  87.906100   0.001442  -0.008170  65.929500   0.001558  -0.001204  89.000000  -0.000224  -0.001244  94.150000   0.001385   0.000182  70.612500  -0.002302  -0.001342  88.995900  -4.999530  -0.090490 100.471000   0.003946  -0.011794  75.353800  -0.002664  -0.009981  88.984600 -10.004200  -0.176327 110.000000  -0.001730  -0.000314  80.000000   0.002395   0.004030   2.723440  17.004600   3.265250   0.708244   0.042179   3.940450  -2.886130  -3.567550   0.799770  -0.000000   0.000000   0.000000   3.507820  15.662500  -5.350730  -2.286280   3.795930  -8.807370   2.271760  -5.050090   3.994400  -0.000000   0.000000   0.000000
  1.917860  89.530000   2.516650  -4.251170 -13.952100  -2.479100   0.351383   8.288690   1.425250   0.499711  16.583600   2.843950   2.025150  -2.261080   0.083905   3.341720  -4.567450  -2.123430  -5.100800  -2.358340  -0.228150 -67.817600  21.466000  -8.555310  -0.181335  -2.784910 -19.959500  19.311400 -15.506800   8.803860  41.450700  38.105800 -67.229200 -33.325900   0.016458   0.010924 -11.662900   0.004701  -0.027204 -32.901300   6.276730  -9.592300 -27.350200   0.005224   0.000754 -19.145100   0.004667  -0.025471 -28.643400  -1.622900   2.967900 -38.790900   0.002583   0.002143 -25.834700   0.004254   0.003276 -28.755600  -1.628620   2.964760 -42.457600   0.003958   0.003996 -28.276700   0.003442   0.004773 -34.437800  -1.914300   2.788560 -51.725800  -0.008216   0.003004 -34.449400   0.003092   0.006676   9.863060  -2.904100   6.850880  45.688300  14.108900  -0.294549 -27.565600 -35.551800  92.751300 -17.678100  -0.385879  18.371500 -15.555000  37.397600  54.022400  81.983400  -0.004347   0.000619  47.940900  -0.000183   0.005629  88.996900   4.999670   0.079612  87.892900   0.001508  -0.008443  65.919600   0.001575  -0.001252  89.000000  -0.000256  -0.001357  94.150400   0.001433   0.000206  70.612800  -0.002603  -0.001456  88.995900  -4.999470  -0.090783 100.552000   0.003854  -0.012013  75.414300  -0.002951  -0.010109  88.984600 -10.004300  -0.176330 110.000000  -0.001890  -0.000312  80.000000   0.002455   0.004100   2.713100  16.680200   3.327010   0.740805   0.122151   4.203120  -2.871870  -3.652430   0.871146   0.000000   0.000000  -0.000000   3.488140  15.390500  -5.230930  -2.217120   3.598340  -8.606400   2.200060  -4.914290   4.091500  -0.000000   0.000000   0.000000
